<mxfile host="Electron" modified="2024-03-19T03:11:33.153Z" agent="Mozilla/5.0 (X11; Linux x86_64) AppleWebKit/537.36 (KHTML, like Gecko) draw.io/24.0.4 Chrome/120.0.6099.109 Electron/28.1.0 Safari/537.36" etag="xkY0Np_l_Tqm8NyojXR9" version="24.0.4" type="device" pages="2">
  <diagram name="Hunt" id="pXQsYY99cYoHmfSgzknD">
    <mxGraphModel dx="954" dy="658" grid="1" gridSize="10" guides="1" tooltips="1" connect="1" arrows="1" fold="1" page="1" pageScale="1" pageWidth="850" pageHeight="1100" math="0" shadow="0">
      <root>
        <mxCell id="0" />
        <mxCell id="1" parent="0" />
        <mxCell id="dpOLIdjryJoJahI_UX9y-8" style="edgeStyle=orthogonalEdgeStyle;rounded=0;orthogonalLoop=1;jettySize=auto;html=1;exitX=0.5;exitY=1;exitDx=0;exitDy=0;entryX=0.5;entryY=0;entryDx=0;entryDy=0;fontFamily=Helvetica;fontSize=18;fontColor=default;strokeWidth=2;endArrow=blockThin;endFill=1;" edge="1" parent="1" source="dpOLIdjryJoJahI_UX9y-2" target="dpOLIdjryJoJahI_UX9y-7">
          <mxGeometry relative="1" as="geometry" />
        </mxCell>
        <mxCell id="dpOLIdjryJoJahI_UX9y-2" value="&lt;b style=&quot;font-size: 18px;&quot;&gt;D&lt;/b&gt;" style="ellipse;whiteSpace=wrap;html=1;strokeWidth=2;fontSize=18;fillColor=#dae8fc;strokeColor=#6c8ebf;" vertex="1" parent="1">
          <mxGeometry x="280" y="160" width="100" height="60" as="geometry" />
        </mxCell>
        <mxCell id="dpOLIdjryJoJahI_UX9y-3" value="t" style="text;html=1;align=center;verticalAlign=middle;resizable=0;points=[];autosize=1;strokeColor=none;fillColor=none;fontFamily=Helvetica;fontSize=14;fontColor=default;fontStyle=1" vertex="1" parent="1">
          <mxGeometry x="324" y="178" width="30" height="30" as="geometry" />
        </mxCell>
        <mxCell id="dpOLIdjryJoJahI_UX9y-4" value="标记y" style="rounded=0;whiteSpace=wrap;html=1;strokeColor=#82b366;strokeWidth=2;align=center;verticalAlign=middle;fontFamily=Helvetica;fontSize=18;fillColor=#d5e8d4;fontStyle=1" vertex="1" parent="1">
          <mxGeometry x="130" y="370" width="110" height="50" as="geometry" />
        </mxCell>
        <mxCell id="dpOLIdjryJoJahI_UX9y-5" value="t" style="text;html=1;align=center;verticalAlign=middle;resizable=0;points=[];autosize=1;strokeColor=none;fillColor=none;fontFamily=Helvetica;fontSize=14;fontColor=default;fontStyle=1" vertex="1" parent="1">
          <mxGeometry x="195" y="385" width="30" height="30" as="geometry" />
        </mxCell>
        <mxCell id="dpOLIdjryJoJahI_UX9y-9" style="edgeStyle=orthogonalEdgeStyle;rounded=0;orthogonalLoop=1;jettySize=auto;html=1;exitX=0.5;exitY=1;exitDx=0;exitDy=0;entryX=0.5;entryY=0;entryDx=0;entryDy=0;strokeColor=default;strokeWidth=2;align=center;verticalAlign=middle;fontFamily=Helvetica;fontSize=18;fontColor=default;labelBackgroundColor=default;endArrow=blockThin;endFill=1;" edge="1" parent="1" source="dpOLIdjryJoJahI_UX9y-7" target="dpOLIdjryJoJahI_UX9y-4">
          <mxGeometry relative="1" as="geometry" />
        </mxCell>
        <mxCell id="dpOLIdjryJoJahI_UX9y-15" style="edgeStyle=orthogonalEdgeStyle;rounded=0;orthogonalLoop=1;jettySize=auto;html=1;exitX=0.5;exitY=1;exitDx=0;exitDy=0;entryX=0.5;entryY=0;entryDx=0;entryDy=0;strokeColor=default;strokeWidth=2;align=center;verticalAlign=middle;fontFamily=Helvetica;fontSize=18;fontColor=default;labelBackgroundColor=default;endArrow=blockThin;endFill=1;" edge="1" parent="1" source="dpOLIdjryJoJahI_UX9y-7" target="dpOLIdjryJoJahI_UX9y-14">
          <mxGeometry relative="1" as="geometry" />
        </mxCell>
        <mxCell id="dpOLIdjryJoJahI_UX9y-7" value="出边数量" style="rhombus;whiteSpace=wrap;html=1;strokeColor=#d79b00;strokeWidth=2;align=center;verticalAlign=middle;fontFamily=Helvetica;fontSize=18;fillColor=#ffe6cc;fontStyle=1" vertex="1" parent="1">
          <mxGeometry x="280" y="250" width="100" height="70" as="geometry" />
        </mxCell>
        <mxCell id="dpOLIdjryJoJahI_UX9y-10" value="0" style="text;html=1;align=center;verticalAlign=middle;resizable=0;points=[];autosize=1;strokeColor=none;fillColor=none;fontFamily=Helvetica;fontSize=18;fontColor=default;labelBackgroundColor=default;" vertex="1" parent="1">
          <mxGeometry x="265" y="310" width="30" height="40" as="geometry" />
        </mxCell>
        <mxCell id="dpOLIdjryJoJahI_UX9y-11" value="&lt;span style=&quot;font-family: Helvetica; font-size: 18px; font-style: normal; font-variant-ligatures: normal; font-variant-caps: normal; font-weight: 400; letter-spacing: normal; orphans: 2; text-align: center; text-indent: 0px; text-transform: none; widows: 2; word-spacing: 0px; -webkit-text-stroke-width: 0px; white-space: normal; background-color: rgb(251, 251, 251); text-decoration-thickness: initial; text-decoration-style: initial; text-decoration-color: initial; float: none; display: inline !important;&quot;&gt;是否叶结点&lt;/span&gt;" style="text;whiteSpace=wrap;html=1;fontFamily=Helvetica;fontSize=18;fontColor=#999999;labelBackgroundColor=default;" vertex="1" parent="1">
          <mxGeometry x="180" y="270" width="120" height="50" as="geometry" />
        </mxCell>
        <mxCell id="dpOLIdjryJoJahI_UX9y-22" style="edgeStyle=orthogonalEdgeStyle;rounded=0;orthogonalLoop=1;jettySize=auto;html=1;exitX=0.5;exitY=1;exitDx=0;exitDy=0;entryX=0.5;entryY=0;entryDx=0;entryDy=0;strokeColor=default;strokeWidth=2;align=center;verticalAlign=middle;fontFamily=Helvetica;fontSize=18;fontColor=default;labelBackgroundColor=default;endArrow=blockThin;endFill=1;" edge="1" parent="1" source="dpOLIdjryJoJahI_UX9y-14" target="dpOLIdjryJoJahI_UX9y-19">
          <mxGeometry relative="1" as="geometry" />
        </mxCell>
        <mxCell id="dpOLIdjryJoJahI_UX9y-23" style="edgeStyle=orthogonalEdgeStyle;rounded=0;orthogonalLoop=1;jettySize=auto;html=1;exitX=0.5;exitY=1;exitDx=0;exitDy=0;entryX=0.5;entryY=0;entryDx=0;entryDy=0;strokeColor=default;strokeWidth=2;align=center;verticalAlign=middle;fontFamily=Helvetica;fontSize=18;fontColor=default;labelBackgroundColor=default;endArrow=blockThin;endFill=1;" edge="1" parent="1" source="dpOLIdjryJoJahI_UX9y-14" target="dpOLIdjryJoJahI_UX9y-18">
          <mxGeometry relative="1" as="geometry" />
        </mxCell>
        <mxCell id="dpOLIdjryJoJahI_UX9y-25" style="edgeStyle=orthogonalEdgeStyle;rounded=0;orthogonalLoop=1;jettySize=auto;html=1;exitX=0.5;exitY=1;exitDx=0;exitDy=0;strokeColor=default;strokeWidth=2;align=center;verticalAlign=middle;fontFamily=Helvetica;fontSize=18;fontColor=default;labelBackgroundColor=default;endArrow=blockThin;endFill=1;" edge="1" parent="1" source="dpOLIdjryJoJahI_UX9y-14" target="dpOLIdjryJoJahI_UX9y-24">
          <mxGeometry relative="1" as="geometry" />
        </mxCell>
        <mxCell id="dpOLIdjryJoJahI_UX9y-14" value="属性测试条件&lt;div&gt;划分类别子集&lt;/div&gt;" style="rounded=0;whiteSpace=wrap;html=1;strokeColor=#82b366;strokeWidth=2;align=center;verticalAlign=middle;fontFamily=Helvetica;fontSize=18;fillColor=#d5e8d4;fontStyle=1" vertex="1" parent="1">
          <mxGeometry x="400" y="370" width="130" height="50" as="geometry" />
        </mxCell>
        <mxCell id="dpOLIdjryJoJahI_UX9y-26" style="edgeStyle=orthogonalEdgeStyle;rounded=0;orthogonalLoop=1;jettySize=auto;html=1;exitX=0.5;exitY=1;exitDx=0;exitDy=0;entryX=1;entryY=0.5;entryDx=0;entryDy=0;strokeColor=default;strokeWidth=2;align=center;verticalAlign=middle;fontFamily=Helvetica;fontSize=18;fontColor=default;labelBackgroundColor=default;endArrow=blockThin;endFill=1;" edge="1" parent="1" source="dpOLIdjryJoJahI_UX9y-18" target="dpOLIdjryJoJahI_UX9y-7">
          <mxGeometry relative="1" as="geometry">
            <Array as="points">
              <mxPoint x="570" y="550" />
              <mxPoint x="640" y="550" />
              <mxPoint x="640" y="300" />
              <mxPoint x="380" y="300" />
            </Array>
          </mxGeometry>
        </mxCell>
        <mxCell id="dpOLIdjryJoJahI_UX9y-18" value="&lt;b&gt;D&#39;&lt;/b&gt;" style="ellipse;whiteSpace=wrap;html=1;strokeColor=#666666;strokeWidth=2;align=center;verticalAlign=middle;fontFamily=Helvetica;fontSize=18;fontColor=#333333;labelBackgroundColor=none;fillColor=#f5f5f5;" vertex="1" parent="1">
          <mxGeometry x="520" y="460" width="100" height="70" as="geometry" />
        </mxCell>
        <mxCell id="dpOLIdjryJoJahI_UX9y-27" style="edgeStyle=orthogonalEdgeStyle;rounded=0;orthogonalLoop=1;jettySize=auto;html=1;exitX=0.5;exitY=1;exitDx=0;exitDy=0;entryX=1;entryY=0.5;entryDx=0;entryDy=0;strokeColor=default;strokeWidth=2;align=center;verticalAlign=middle;fontFamily=Helvetica;fontSize=18;fontColor=default;labelBackgroundColor=default;endArrow=blockThin;endFill=1;" edge="1" parent="1" source="dpOLIdjryJoJahI_UX9y-19" target="dpOLIdjryJoJahI_UX9y-7">
          <mxGeometry relative="1" as="geometry">
            <Array as="points">
              <mxPoint x="350" y="580" />
              <mxPoint x="680" y="580" />
              <mxPoint x="680" y="270" />
              <mxPoint x="380" y="270" />
            </Array>
          </mxGeometry>
        </mxCell>
        <mxCell id="dpOLIdjryJoJahI_UX9y-19" value="&lt;b&gt;D&#39;&lt;/b&gt;" style="ellipse;whiteSpace=wrap;html=1;strokeColor=#666666;strokeWidth=2;align=center;verticalAlign=middle;fontFamily=Helvetica;fontSize=18;fontColor=#333333;labelBackgroundColor=none;fillColor=#f5f5f5;" vertex="1" parent="1">
          <mxGeometry x="300" y="460" width="100" height="70" as="geometry" />
        </mxCell>
        <mxCell id="dpOLIdjryJoJahI_UX9y-20" value="1" style="text;html=1;align=center;verticalAlign=middle;resizable=0;points=[];autosize=1;strokeColor=none;fillColor=none;fontFamily=Helvetica;fontSize=14;fontColor=default;fontStyle=1" vertex="1" parent="1">
          <mxGeometry x="346" y="483" width="30" height="30" as="geometry" />
        </mxCell>
        <mxCell id="dpOLIdjryJoJahI_UX9y-21" value="n" style="text;html=1;align=center;verticalAlign=middle;resizable=0;points=[];autosize=1;strokeColor=none;fillColor=none;fontFamily=Helvetica;fontSize=14;fontColor=default;fontStyle=1" vertex="1" parent="1">
          <mxGeometry x="567" y="483" width="30" height="30" as="geometry" />
        </mxCell>
        <mxCell id="dpOLIdjryJoJahI_UX9y-24" value="&lt;b&gt;...&lt;/b&gt;" style="text;html=1;align=center;verticalAlign=middle;resizable=0;points=[];autosize=1;strokeColor=none;fillColor=none;fontFamily=Helvetica;fontSize=18;fontColor=default;labelBackgroundColor=default;" vertex="1" parent="1">
          <mxGeometry x="445" y="473" width="40" height="40" as="geometry" />
        </mxCell>
      </root>
    </mxGraphModel>
  </diagram>
  <diagram id="UIRExzKkE9CLthFVAD1k" name="Page-2">
    <mxGraphModel dx="954" dy="658" grid="1" gridSize="10" guides="1" tooltips="1" connect="1" arrows="1" fold="1" page="1" pageScale="1" pageWidth="850" pageHeight="1100" math="0" shadow="0">
      <root>
        <mxCell id="0" />
        <mxCell id="1" parent="0" />
      </root>
    </mxGraphModel>
  </diagram>
</mxfile>
